<?xml version="1.0" encoding="UTF-8" standalone="no"?>
<svg
   version="1.2"
   viewBox="0 0 786.59497 187.01199"
   width="786.59497"
   height="187.01199"
   id="svg8"
   sodipodi:docname="MotoGP 2024 (Icon).svg"
   inkscape:version="1.2.2 (b0a8486541, 2022-12-01)"
   xmlns:inkscape="http://www.inkscape.org/namespaces/inkscape"
   xmlns:sodipodi="http://sodipodi.sourceforge.net/DTD/sodipodi-0.dtd"
   xmlns="http://www.w3.org/2000/svg"
   xmlns:svg="http://www.w3.org/2000/svg"
   xmlns:rdf="http://www.w3.org/1999/02/22-rdf-syntax-ns#"
   xmlns:cc="http://creativecommons.org/ns#"
   xmlns:dc="http://purl.org/dc/elements/1.1/">
  <defs
     id="defs12" />
  <sodipodi:namedview
     id="namedview10"
     pagecolor="#ffffff"
     bordercolor="#000000"
     borderopacity="0.25"
     inkscape:showpageshadow="2"
     inkscape:pageopacity="0.0"
     inkscape:pagecheckerboard="0"
     inkscape:deskcolor="#d1d1d1"
     showgrid="false"
     inkscape:zoom="0.47670982"
     inkscape:cx="422.68901"
     inkscape:cy="202.42923"
     inkscape:window-width="1187"
     inkscape:window-height="582"
     inkscape:window-x="0"
     inkscape:window-y="0"
     inkscape:window-maximized="1"
     inkscape:current-layer="svg8" />
  <title
     id="title2">timingpass-logo-landscape-on-dark-svg</title>
  <style
     id="style4">
		.s0 { fill: #000000 } 
	</style>
  <g
     id="g545">
    <path
       style="fill:#000000;fill-opacity:1;fill-rule:nonzero;stroke:none;stroke-width:0.652252"
       d="M 235.3717,48.015284 C 235.3717,21.303781 214.18344,0 187.74228,0 173.9866,0 161.10902,5.7657997 151.92775,15.979391 L 0,184.98968 H 71.193606 L 177.32968,66.357594 c 2.1693,-2.424692 5.16666,-1.586912 5.16666,1.444111 v 71.507535 c 0,26.95427 20.41416,47.70295 46.93306,47.70295 13.90411,0 26.76482,-5.70376 35.91892,-15.92978 L 359.16571,66.279397 c 2.15107,-2.402932 5.0435,-1.422297 5.0435,1.709988 V 184.99436 H 417.1 V 48.015284 C 417.1,21.273551 396.01848,0 369.67706,0 356.04652,0 343.40137,5.6962296 334.26884,15.87867 l -93.70109,104.47328 c -2.04056,2.27515 -5.19605,1.30826 -5.19605,-1.59215 z"
       id="path852"
       inkscape:connector-curvature="0"
       sodipodi:nodetypes="sssccsssssssccssssss" />
    <path
       inkscape:connector-curvature="0"
       id="path970"
       style="fill:#000000;fill-opacity:1;fill-rule:nonzero;stroke:none;stroke-width:0.655789"
       d="m 434.10535,92.551279 c 0,51.079691 41.23408,92.548721 92.02558,92.548721 h 154.48856 v -55.89163 h 41.73882 c 35.45544,0 64.23663,-28.94509 64.23663,-64.602826 C 786.59494,28.947407 757.8129,0 722.35831,0 H 526.13093 C 475.3409,0 434.10535,41.47064 434.10535,92.551279 Z m 92.02558,74.210141 c -40.72715,0 -73.79091,-33.25227 -73.79091,-74.210016 0,-40.95822 33.06448,-74.209748 73.79091,-74.209748 h 79.55709 v 37.553065 h -79.55709 c -20.11875,0 -36.45074,16.423566 -36.45074,36.656683 0,20.232656 16.33136,36.656966 36.45074,36.656966 h 43.12512 v -18.33858 h -43.12512 c -10.05506,0 -18.21608,-8.20753 -18.21608,-18.318386 0,-10.111324 8.16176,-18.318112 18.21608,-18.318112 h 79.55709 v 92.528128 z m 134.90184,0 H 624.60384 V 74.233292 h 97.75447 c 5.03228,0 9.11891,-4.110046 9.11891,-9.170769 0,-5.060097 -4.08591,-9.167802 -9.11891,-9.167802 H 624.60384 V 18.341656 h 97.75447 c 25.39112,0 46.00197,20.728287 46.00197,46.263262 0,25.532392 -20.60666,46.264872 -45.98323,46.264872 h -61.34428 z" />
  </g>
  <metadata
     id="metadata547">
    <rdf:RDF>
      <cc:Work
         rdf:about="">
        <dc:title>timingpass-logo-landscape-on-dark-svg</dc:title>
      </cc:Work>
    </rdf:RDF>
  </metadata>
</svg>
