<?xml version="1.0" encoding="UTF-8" standalone="no"?>
<!-- Created with Inkscape (http://www.inkscape.org/) -->

<svg
   width="45.502014mm"
   height="19.471207mm"
   viewBox="0 0 45.502014 19.471206"
   version="1.1"
   id="svg5116"
   inkscape:version="1.3.1 (91b66b0783, 2023-11-16)"
   sodipodi:docname="FIA World Endurance Championship Logo (2024).svg"
   xml:space="preserve"
   xmlns:inkscape="http://www.inkscape.org/namespaces/inkscape"
   xmlns:sodipodi="http://sodipodi.sourceforge.net/DTD/sodipodi-0.dtd"
   xmlns="http://www.w3.org/2000/svg"
   xmlns:svg="http://www.w3.org/2000/svg"
   xmlns:rdf="http://www.w3.org/1999/02/22-rdf-syntax-ns#"
   xmlns:cc="http://creativecommons.org/ns#"
   xmlns:dc="http://purl.org/dc/elements/1.1/"><defs
     id="defs5110"><clipPath
       clipPathUnits="userSpaceOnUse"
       id="clipPath4583"><path
         d="M 688.323,21.205 H 811.677 V 81.746 H 688.323 Z"
         id="path4581"
         inkscape:connector-curvature="0" /></clipPath></defs><sodipodi:namedview
     id="base"
     pagecolor="#ffffff"
     bordercolor="#666666"
     borderopacity="1.0"
     inkscape:pageopacity="0.0"
     inkscape:pageshadow="2"
     inkscape:zoom="3.959798"
     inkscape:cx="107.58125"
     inkscape:cy="19.319167"
     inkscape:document-units="mm"
     inkscape:current-layer="g4579"
     showgrid="false"
     fit-margin-top="1"
     fit-margin-left="1"
     fit-margin-right="1"
     fit-margin-bottom="1"
     inkscape:pagecheckerboard="false"
     inkscape:window-width="1920"
     inkscape:window-height="1017"
     inkscape:window-x="-8"
     inkscape:window-y="-8"
     inkscape:window-maximized="1"
     inkscape:showpageshadow="2"
     inkscape:deskcolor="#d1d1d1" /><metadata
     id="metadata5113"><rdf:RDF><cc:Work
         rdf:about=""><dc:format>image/svg+xml</dc:format><dc:type
           rdf:resource="http://purl.org/dc/dcmitype/StillImage" /></cc:Work></rdf:RDF></metadata><g
     inkscape:label="Layer 1"
     inkscape:groupmode="layer"
     id="layer1"
     transform="translate(-80.065762,-161.2438)"><g
       id="g4577"
       transform="matrix(0.35277777,0,0,-0.35277777,-161.77379,190.02748)"><g
         id="g4579"
         clip-path="url(#clipPath4583)"><g
           id="g1"
           style="fill:#00bbfe;fill-opacity:1"><g
             id="g4585"
             transform="translate(751.2755,66.5283)"
             style="fill:#00bbfe;fill-opacity:1"><path
               d="M 0,0 C 0.22,0.192 0.442,0.373 0.664,0.549 3.988,3.46 11.889,8.831 23.443,9.245 23.529,9.248 23.546,9.171 23.448,9.154 21.254,8.784 14.871,7.471 9.529,4.083 c 2.018,0.39 3.602,0.356 4.289,0.356 h 8.354 c 1.736,0 4.426,0.112 6.139,1.5 3.944,3.477 8.51,5.209 8.51,5.209 -24.467,4.07 -35.448,-4.165 -43.986,-11.263 -8.539,-7.097 -16.981,-8.732 -22.126,-8.6 l 3.77,8.489 c -14.336,-10.585 -25.953,-8.707 -25.953,-8.707 4.551,13.048 19.917,16.469 19.917,16.469 -0.711,0.374 -6.2,1.322 -13.735,-1.406 -12.601,-4.85 -17.292,-14.651 -17.292,-21.319 12.154,-1.504 20.997,0.318 26.646,4.436 0.05,0.036 0.096,0.002 0.066,-0.064 -0.029,-0.066 -2.13,-4.508 -2.13,-4.508 7.856,-1.373 18.904,-1.637 28.586,6.99 C -7.668,-6.789 -4.628,-4.032 0,0"
               style="fill:#00bbfe;fill-opacity:1;fill-rule:nonzero;stroke:none"
               id="path4587"
               inkscape:connector-curvature="0" /></g><g
             id="g4589"
             transform="translate(753.9196,65.0831)"
             style="fill:#00bbfe;fill-opacity:1"><path
               d="m 0,0 c -2.903,-2.394 -3.987,-3.312 -3.987,-3.312 h 19.413 c 1.785,0 3.759,-0.215 4.66,2.128 0.879,2.286 1.829,3.55 1.829,3.55 H 8.059 C 6.003,2.366 2.811,2.318 0,0"
               style="fill:#00bbfe;fill-opacity:1;fill-rule:nonzero;stroke:none"
               id="path4591"
               inkscape:connector-curvature="0" /></g><g
             id="g4593"
             transform="translate(744.1761,55.5118)"
             style="fill:#00bbfe;fill-opacity:1"><path
               d="m 0,0 c -2.904,-2.69 -4.74,-3.722 -4.74,-3.722 h 25.8 c 1.785,0 3.745,-0.055 4.858,2.474 1.112,2.53 1.682,3.906 1.682,3.906 H 8.058 C 6.002,2.658 2.811,2.605 0,0"
               style="fill:#00bbfe;fill-opacity:1;fill-rule:nonzero;stroke:none"
               id="path4595"
               inkscape:connector-curvature="0" /></g><g
             id="g4597"
             transform="translate(779.5629,67.6342)"
             style="fill:#00bbfe;fill-opacity:1"><path
               d="m 0,0 c -6.827,-9.646 0.725,-17.58 12.643,-16.474 4.653,0.6 8.528,2.371 9.875,6.791 0,0 -4.059,-1.998 -9.112,-1.998 -5.053,0 -7.939,2.074 -7.939,5.054 0,2.98 2.925,9.249 18.77,10.207 5.842,0.452 5.92,1.735 7.877,5.944 C 26.29,10.373 7.888,10.706 0,0"
               style="fill:#00bbfe;fill-opacity:1;fill-rule:nonzero;stroke:none"
               id="path4599"
               inkscape:connector-curvature="0" /></g></g><g
           id="g4765"
           transform="translate(688.7,42.8007)"><path
             d="m 0,0 h 4.147 v -1.073 h -2.91 v -1.284 h 2.42 V -3.423 H 1.237 V -5.446 H 0 Z"
             style="fill:#042b60;fill-opacity:1;fill-rule:nonzero;stroke:none"
             id="path4767"
             inkscape:connector-curvature="0" /></g><path
           d="m 694.47,42.801 h 1.237 v -5.446 h -1.237 z"
           style="fill:#042b60;fill-opacity:1;fill-rule:nonzero;stroke:none"
           id="path4769"
           inkscape:connector-curvature="0" /><g
           id="g4771"
           transform="translate(699.3078,39.479)"><path
             d="M 0,0 H 1.501 L 0.747,1.82 Z M -0.871,-2.124 H -2.233 L 0.179,3.322 H 1.322 L 3.75,-2.124 H 2.388 l -0.466,1.12 h -2.334 z"
             style="fill:#042b60;fill-opacity:1;fill-rule:nonzero;stroke:none"
             id="path4773"
             inkscape:connector-curvature="0" /></g><g
           id="g4775"
           transform="translate(706.1655,42.8007)"><path
             d="M 0,0 H 1.338 L 2.622,-3.898 3.843,0 H 5.08 L 6.317,-3.889 7.585,0 H 8.923 L 6.909,-5.446 H 5.687 L 4.45,-1.75 3.236,-5.446 H 2.015 Z"
             style="fill:#042b60;fill-opacity:1;fill-rule:nonzero;stroke:none"
             id="path4777"
             inkscape:connector-curvature="0" /></g><g
           id="g4779"
           transform="translate(717.4344,39.152)"><path
             d="m 0,0 c 0,-0.545 0.568,-0.832 1.276,-0.832 0.7,0 1.268,0.287 1.268,0.832 V 1.859 C 2.544,2.404 1.976,2.692 1.276,2.692 0.568,2.692 0,2.404 0,1.859 Z m -1.245,1.953 c 0,1.12 1.128,1.805 2.521,1.805 1.384,0 2.513,-0.685 2.513,-1.805 v -2.046 c 0,-1.121 -1.129,-1.813 -2.513,-1.813 -1.393,0 -2.521,0.692 -2.521,1.813 z"
             style="fill:#042b60;fill-opacity:1;fill-rule:nonzero;stroke:none"
             id="path4781"
             inkscape:connector-curvature="0" /></g><g
           id="g4783"
           transform="translate(724.3478,37.3549)"><path
             d="m 0,0 h -1.237 v 5.446 h 2.559 c 1.408,0 2.28,-0.622 2.28,-1.735 V 3.431 C 3.602,2.73 3.15,2.155 2.311,1.937 L 3.827,0 H 2.248 L 0.77,1.937 v 0.809 h 0.552 c 0.677,0 1.043,0.241 1.043,0.77 v 0.102 c 0,0.529 -0.366,0.754 -1.043,0.754 H 0 Z"
             style="fill:#042b60;fill-opacity:1;fill-rule:nonzero;stroke:none"
             id="path4785"
             inkscape:connector-curvature="0" /></g><g
           id="g4787"
           transform="translate(729.8292,42.8007)"><path
             d="M 0,0 H 1.237 V -4.38 H 4.131 V -5.446 H 0 Z"
             style="fill:#042b60;fill-opacity:1;fill-rule:nonzero;stroke:none"
             id="path4789"
             inkscape:connector-curvature="0" /></g><g
           id="g4791"
           transform="translate(737.9957,38.4208)"><path
             d="m 0,0 c 0.677,0 1.05,0.288 1.05,0.832 v 1.65 C 1.05,3.026 0.677,3.306 0,3.306 H -1.315 V 0 Z M -2.552,4.38 H 0 c 1.416,0 2.287,-0.7 2.287,-1.805 V 0.739 C 2.287,-0.366 1.416,-1.066 0,-1.066 h -2.552 z"
             style="fill:#042b60;fill-opacity:1;fill-rule:nonzero;stroke:none"
             id="path4793"
             inkscape:connector-curvature="0" /></g><g
           id="g2"
           style="fill:#00bbfe;fill-opacity:1"><g
             id="g4795"
             transform="translate(744.153,42.8007)"
             style="fill:#00bbfe;fill-opacity:1"><path
               d="M 0,0 H 4.131 V -1.073 H 1.237 V -2.155 H 3.649 V -3.213 H 1.237 V -4.38 H 4.201 V -5.446 H 0 Z"
               style="fill:#00bbfe;fill-opacity:1;fill-rule:nonzero;stroke:none"
               id="path4797"
               inkscape:connector-curvature="0" /></g><g
             id="g4799"
             transform="translate(750.0399,42.8007)"
             style="fill:#00bbfe;fill-opacity:1"><path
               d="M 0,0 H 1.26 L 3.82,-3.485 3.781,0 H 5.01 V -5.446 H 3.726 L 1.19,-1.999 1.221,-5.446 H 0 Z"
               style="fill:#00bbfe;fill-opacity:1;fill-rule:nonzero;stroke:none"
               id="path4801"
               inkscape:connector-curvature="0" /></g><g
             id="g4803"
             transform="translate(759.5359,38.4208)"
             style="fill:#00bbfe;fill-opacity:1"><path
               d="m 0,0 c 0.677,0 1.051,0.288 1.051,0.832 v 1.65 C 1.051,3.026 0.677,3.306 0,3.306 H -1.315 V 0 Z M -2.552,4.38 H 0 c 1.416,0 2.287,-0.7 2.287,-1.805 V 0.739 C 2.287,-0.366 1.416,-1.066 0,-1.066 h -2.552 z"
               style="fill:#00bbfe;fill-opacity:1;fill-rule:nonzero;stroke:none"
               id="path4805"
               inkscape:connector-curvature="0" /></g><g
             id="g4807"
             transform="translate(763.6951,42.8007)"
             style="fill:#00bbfe;fill-opacity:1"><path
               d="m 0,0 h 1.245 v -3.649 c 0,-0.544 0.451,-0.84 1.167,-0.84 0.723,0 1.175,0.296 1.175,0.84 V 0 H 4.823 V -3.75 C 4.823,-4.854 3.859,-5.555 2.412,-5.555 0.973,-5.555 0,-4.854 0,-3.75 Z"
               style="fill:#00bbfe;fill-opacity:1;fill-rule:nonzero;stroke:none"
               id="path4809"
               inkscape:connector-curvature="0" /></g><g
             id="g4811"
             transform="translate(771.6744,37.3549)"
             style="fill:#00bbfe;fill-opacity:1"><path
               d="m 0,0 h -1.237 v 5.446 h 2.559 c 1.408,0 2.28,-0.622 2.28,-1.735 V 3.431 C 3.602,2.73 3.151,2.155 2.31,1.937 L 3.827,0 H 2.248 L 0.77,1.937 v 0.809 h 0.552 c 0.677,0 1.043,0.241 1.043,0.77 v 0.102 c 0,0.529 -0.366,0.754 -1.043,0.754 H 0 Z"
               style="fill:#00bbfe;fill-opacity:1;fill-rule:nonzero;stroke:none"
               id="path4813"
               inkscape:connector-curvature="0" /></g><g
             id="g4815"
             transform="translate(778.8209,39.479)"
             style="fill:#00bbfe;fill-opacity:1"><path
               d="M 0,0 H 1.501 L 0.747,1.82 Z M -0.871,-2.124 H -2.233 L 0.179,3.322 H 1.322 L 3.75,-2.124 H 2.388 l -0.466,1.12 h -2.335 z"
               style="fill:#00bbfe;fill-opacity:1;fill-rule:nonzero;stroke:none"
               id="path4817"
               inkscape:connector-curvature="0" /></g><g
             id="g4819"
             transform="translate(783.9447,42.8007)"
             style="fill:#00bbfe;fill-opacity:1"><path
               d="M 0,0 H 1.26 L 3.82,-3.485 3.781,0 H 5.01 V -5.446 H 3.727 L 1.19,-1.999 1.221,-5.446 H 0 Z"
               style="fill:#00bbfe;fill-opacity:1;fill-rule:nonzero;stroke:none"
               id="path4821"
               inkscape:connector-curvature="0" /></g><g
             id="g4823"
             transform="translate(790.8423,41.1048)"
             style="fill:#00bbfe;fill-opacity:1"><path
               d="m 0,0 c 0,1.105 1.011,1.805 2.412,1.805 1.408,0 2.404,-0.677 2.404,-1.603 V -0.327 H 3.587 v 0.436 c 0,0.381 -0.475,0.63 -1.175,0.63 -0.693,0 -1.167,-0.296 -1.167,-0.832 v -1.86 c 0,-0.544 0.474,-0.832 1.167,-0.832 0.7,0 1.175,0.249 1.175,0.63 v 0.482 H 4.816 V -2.248 C 4.816,-3.174 3.82,-3.859 2.412,-3.859 1.011,-3.859 0,-3.151 0,-2.046 Z"
               style="fill:#00bbfe;fill-opacity:1;fill-rule:nonzero;stroke:none"
               id="path4825"
               inkscape:connector-curvature="0" /></g><g
             id="g4827"
             transform="translate(797.5223,42.8007)"
             style="fill:#00bbfe;fill-opacity:1"><path
               d="M 0,0 H 4.131 V -1.073 H 1.237 V -2.155 H 3.649 V -3.213 H 1.237 V -4.38 H 4.201 V -5.446 H 0 Z"
               style="fill:#00bbfe;fill-opacity:1;fill-rule:nonzero;stroke:none"
               id="path4829"
               inkscape:connector-curvature="0" /></g></g><g
           id="g4831"
           transform="translate(688.3641,33.0912)"><path
             d="m 0,0 c 0,1.105 1.011,1.805 2.412,1.805 1.408,0 2.404,-0.677 2.404,-1.602 V -0.326 H 3.587 v 0.435 c 0,0.381 -0.475,0.63 -1.175,0.63 -0.693,0 -1.167,-0.296 -1.167,-0.832 v -1.86 c 0,-0.544 0.474,-0.832 1.167,-0.832 0.7,0 1.175,0.249 1.175,0.63 v 0.482 H 4.816 V -2.248 C 4.816,-3.174 3.82,-3.859 2.412,-3.859 1.011,-3.859 0,-3.151 0,-2.046 Z"
             style="fill:#042b60;fill-opacity:1;fill-rule:nonzero;stroke:none"
             id="path4833"
             inkscape:connector-curvature="0" /></g><g
           id="g4835"
           transform="translate(695.0438,34.7875)"><path
             d="M 0,0 H 1.237 V -2.116 H 3.602 V 0 H 4.839 V -5.446 H 3.602 v 2.264 H 1.237 V -5.446 H 0 Z"
             style="fill:#042b60;fill-opacity:1;fill-rule:nonzero;stroke:none"
             id="path4837"
             inkscape:connector-curvature="0" /></g><g
           id="g4839"
           transform="translate(703.4821,31.4655)"><path
             d="M 0,0 H 1.501 L 0.747,1.82 Z M -0.871,-2.124 H -2.233 L 0.179,3.322 H 1.322 L 3.75,-2.124 H 2.388 l -0.466,1.12 h -2.334 z"
             style="fill:#042b60;fill-opacity:1;fill-rule:nonzero;stroke:none"
             id="path4841"
             inkscape:connector-curvature="0" /></g><g
           id="g4843"
           transform="translate(708.6057,34.7875)"><path
             d="M 0,0 H 1.019 L 2.949,-2.871 4.878,0 H 5.897 V -5.446 H 4.66 L 4.699,-2.458 3.594,-4.116 H 2.303 L 1.19,-2.451 1.229,-5.446 H 0 Z"
             style="fill:#042b60;fill-opacity:1;fill-rule:nonzero;stroke:none"
             id="path4845"
             inkscape:connector-curvature="0" /></g><g
           id="g4847"
           transform="translate(718.9963,31.9009)"><path
             d="M 0,0 C 0.677,0 1.05,0.296 1.05,0.84 V 0.988 C 1.05,1.533 0.677,1.813 0,1.813 H -1.315 V 0 Z M -2.552,2.887 H 0 c 1.408,0 2.287,-0.701 2.287,-1.805 V 0.747 C 2.287,-0.358 1.408,-1.058 0,-1.058 H -1.315 V -2.56 h -1.237 z"
             style="fill:#042b60;fill-opacity:1;fill-rule:nonzero;stroke:none"
             id="path4849"
             inkscape:connector-curvature="0" /></g><path
           d="m 723.07,34.788 h 1.237 v -5.446 h -1.237 z"
           style="fill:#042b60;fill-opacity:1;fill-rule:nonzero;stroke:none"
           id="path4851"
           inkscape:connector-curvature="0" /><g
           id="g4853"
           transform="translate(727.4407,31.1388)"><path
             d="m 0,0 c 0,-0.545 0.568,-0.833 1.276,-0.833 0.7,0 1.268,0.288 1.268,0.833 V 1.859 C 2.544,2.404 1.976,2.692 1.276,2.692 0.568,2.692 0,2.404 0,1.859 Z m -1.245,1.953 c 0,1.12 1.128,1.804 2.521,1.804 1.385,0 2.513,-0.684 2.513,-1.804 v -2.046 c 0,-1.121 -1.128,-1.813 -2.513,-1.813 -1.393,0 -2.521,0.692 -2.521,1.813 z"
             style="fill:#042b60;fill-opacity:1;fill-rule:nonzero;stroke:none"
             id="path4855"
             inkscape:connector-curvature="0" /></g><g
           id="g4857"
           transform="translate(733.1169,34.7875)"><path
             d="M 0,0 H 1.26 L 3.82,-3.485 3.781,0 H 5.01 V -5.446 H 3.727 L 1.19,-2 1.221,-5.446 H 0 Z"
             style="fill:#042b60;fill-opacity:1;fill-rule:nonzero;stroke:none"
             id="path4859"
             inkscape:connector-curvature="0" /></g><g
           id="g4861"
           transform="translate(739.9521,31.2396)"><path
             d="m 0,0 h 1.221 v -0.163 c 0,-0.381 0.452,-0.763 1.323,-0.763 0.794,0 1.206,0.257 1.206,0.615 v 0.046 c 0,0.351 -0.537,0.468 -1.268,0.514 -1.19,0.101 -2.35,0.49 -2.35,1.618 v 0.156 c 0,0.933 0.716,1.618 2.319,1.618 1.633,0 2.381,-0.809 2.381,-1.719 V 1.665 H 3.625 v 0.163 c 0,0.389 -0.31,0.747 -1.174,0.747 -0.747,0 -1.097,-0.249 -1.097,-0.56 V 1.969 C 1.354,1.525 1.945,1.439 2.661,1.393 3.766,1.3 4.971,0.934 4.971,-0.163 V -0.35 C 4.971,-1.338 4.155,-1.999 2.544,-1.999 0.926,-1.999 0,-1.245 0,-0.249 Z"
             style="fill:#042b60;fill-opacity:1;fill-rule:nonzero;stroke:none"
             id="path4863"
             inkscape:connector-curvature="0" /></g><g
           id="g4865"
           transform="translate(746.7489,34.7875)"><path
             d="M 0,0 H 1.237 V -2.116 H 3.602 V 0 H 4.839 V -5.446 H 3.602 v 2.264 H 1.237 V -5.446 H 0 Z"
             style="fill:#042b60;fill-opacity:1;fill-rule:nonzero;stroke:none"
             id="path4867"
             inkscape:connector-curvature="0" /></g><path
           d="m 753.522,34.788 h 1.237 v -5.446 h -1.237 z"
           style="fill:#042b60;fill-opacity:1;fill-rule:nonzero;stroke:none"
           id="path4869"
           inkscape:connector-curvature="0" /><g
           id="g4871"
           transform="translate(759.2466,31.9009)"><path
             d="M 0,0 C 0.677,0 1.051,0.296 1.051,0.84 V 0.988 C 1.051,1.533 0.677,1.813 0,1.813 H -1.315 V 0 Z M -2.552,2.887 H 0 c 1.408,0 2.287,-0.701 2.287,-1.805 V 0.747 C 2.287,-0.358 1.408,-1.058 0,-1.058 H -1.315 V -2.56 h -1.237 z"
             style="fill:#042b60;fill-opacity:1;fill-rule:nonzero;stroke:none"
             id="path4873"
             inkscape:connector-curvature="0" /></g></g></g></g></svg>
